<?xml version="1.0"?><svg style="enable-background:new 0 0 100 100;" version="1.1" viewBox="0 0 100 100" xml:space="preserve" xmlns="http://www.w3.org/2000/svg" xmlns:xlink="http://www.w3.org/1999/xlink"><style type="text/css">
	.st0{fill:#FFFFFF;}
	.st1{fill:none;stroke:#000000;stroke-width:3;stroke-linecap:round;stroke-linejoin:round;stroke-miterlimit:10;}
	
		.st2{fill-rule:evenodd;clip-rule:evenodd;fill:none;stroke:#000000;stroke-width:3;stroke-linecap:round;stroke-linejoin:round;stroke-miterlimit:10;}
	.st3{fill-rule:evenodd;clip-rule:evenodd;}
	
		.st4{fill-rule:evenodd;clip-rule:evenodd;fill:none;stroke:#040404;stroke-width:3;stroke-linecap:round;stroke-linejoin:round;stroke-miterlimit:10;}
	.st5{fill-rule:evenodd;clip-rule:evenodd;fill:#040404;}
	.st6{fill:none;}
	.st7{fill:none;stroke:#000000;stroke-width:3;stroke-miterlimit:10;}
	.st8{fill:none;stroke:#FFFFFF;stroke-miterlimit:10;}
	.st9{fill:#040404;}
</style><g id="Layer_1"/><g id="Layer_2"><path d="M97.294,21.379c-0.332-1.936-1.977-3.439-3.802-4.004c-8.575-3.077-22.448,12.876-27.707,20.241   c3.715-22.112-8.912-27.371-19.85-19.231c-7.009,5.394-14.602,16.261-18.978,23.87c0.652-6.622,1.888-16.74-2.349-21.667   c-4.13-4.801-13.821-4.749-18.003,3.342C0.427,35.757-0.857,78.745,17.767,84.86c16.818,3.341,19.277-16.477,29.219-32.732   C44.997,77.296,61.727,81.36,69.984,72.136c4.206-4.134,7.116-14.397,16.597-29.865C94.336,29.624,98.502,26.425,97.294,21.379z"/></g></svg>